<svg width="700" height="108" viewBox="0 0 700 108" fill="none" xmlns="http://www.w3.org/2000/svg">
<path fill-rule="evenodd" clip-rule="evenodd" d="M259.903 39.8696C256.979 49.2896 251.782 56.7606 243.661 62.6076C243.661 62.8241 243.445 62.9324 243.012 62.9324L241.388 63.9069V65.2062C241.821 66.5055 242.145 67.6965 242.362 68.7793C242.687 71.3779 243.336 73.9766 243.986 76.5752C244.636 79.8235 245.285 83.0718 245.285 86.6449C245.285 88.5938 244.961 88.5939 244.311 88.9187C242.687 89.5683 241.388 90.218 240.413 88.5938L239.439 87.2945C237.814 84.6959 235.865 81.7724 234.566 78.849C233.916 77.5497 233.267 75.6007 232.942 73.9766C232.292 71.7028 231.318 69.1041 230.343 67.1552C229.369 65.531 229.369 63.9069 229.369 62.2827C229.369 60.9834 229.369 59.3593 228.719 58.06C227.42 53.1875 226.77 48.3151 227.095 43.7675C227.095 41.4937 227.095 39.2199 226.77 37.2709C226.445 34.6723 226.445 32.0737 226.77 29.7999C227.095 26.2268 227.42 23.6281 229.044 21.0295C231.643 17.4564 235.216 17.1316 239.114 16.8067C239.98 16.5902 240.846 16.4819 241.712 16.4819C246.476 16.4819 251.241 18.3226 256.005 22.004C256.33 22.004 256.654 22.6536 256.654 23.3033C256.871 23.5199 257.196 23.8447 257.629 24.2778C260.877 29.1502 261.527 34.0226 259.903 39.8696ZM255.355 33.373C255.03 31.0992 255.03 28.8254 252.757 26.5516C249.941 24.1695 246.91 22.9785 243.661 22.9785H242.362H240.738C238.464 22.9785 235.865 22.9785 233.592 24.9274L232.617 25.5771L232.942 26.5516C233.375 27.8509 233.7 29.2585 233.916 30.7744C234.891 33.6978 235.541 36.6213 236.19 39.5447C236.84 43.0096 237.49 46.4744 238.139 49.9393C238.356 51.6717 238.681 53.2958 239.114 54.8117L239.439 56.7607L241.063 56.111C241.496 55.8944 241.821 55.7862 242.037 55.7862C242.687 55.4613 243.336 55.1365 243.986 54.8117C247.451 51.3468 250.266 47.5572 252.432 43.4427C253.731 40.5192 255.68 37.2709 255.355 33.373Z" fill="black"/>
<path fill-rule="evenodd" clip-rule="evenodd" d="M311.55 73.3268C311.226 72.0275 309.602 71.3779 307.653 71.3779L307.328 70.7282C306.678 70.7282 306.353 69.7537 305.704 68.1296C303.755 62.2827 302.455 56.7606 301.481 50.9137C300.506 46.6909 299.532 42.7929 298.233 38.895C297.799 36.7295 297.258 34.4557 296.608 32.0736C296.284 30.7743 295.959 28.8253 295.959 27.2012C295.959 25.577 296.608 25.577 296.933 25.577C297.15 25.577 297.366 25.577 297.583 25.577H297.908C298.557 25.577 299.207 25.2522 299.857 24.9274C302.455 28.1757 303.43 32.3984 304.404 36.6212C305.054 40.5191 305.704 44.4171 306.353 48.315C306.57 50.0475 306.895 51.8881 307.328 53.8371L307.653 56.4358L309.926 54.8116C310.143 54.3785 310.468 54.0537 310.901 53.8371C311.767 53.1875 312.525 52.5378 313.175 51.8881C316.748 47.9902 321.945 47.9902 326.493 51.5633C332.989 56.3275 335.48 62.9323 333.964 71.3779C332.989 76.5751 329.741 80.4731 323.569 83.0717C322.92 83.3965 321.62 83.3965 319.996 82.7469C316.423 81.4475 313.499 80.473 312.85 76.8999V76.2503C312.525 74.951 312.2 74.6261 311.55 73.3268ZM315.124 71.7027C315.557 72.1358 315.882 72.6772 316.098 73.3268L317.073 75.2758H317.722C318.805 75.4923 319.671 75.6006 320.321 75.6006C324.544 75.6006 326.168 73.002 327.467 70.0785C329.416 65.8558 327.792 62.9323 326.493 60.0089L326.168 59.3592C325.193 57.4102 322.595 56.4358 320.646 56.4358C319.996 56.4358 318.697 56.7606 317.722 57.4102C313.499 60.6585 312.525 66.8303 315.124 71.7027Z" fill="black"/>
<path d="M357.676 66.8303C358.001 65.2061 357.676 63.582 357.352 62.2827C357.135 61.4165 357.027 60.6585 357.027 60.0089C356.702 58.0599 357.352 57.0854 357.676 56.7606C357.676 56.7606 358.651 56.4358 360.6 56.7606C360.816 56.9772 361.141 57.0854 361.574 57.0854L366.447 68.7793H366.772C368.287 70.0786 369.912 70.7282 371.644 70.7282C373.16 70.7282 374.568 70.2951 375.867 69.4289C377.166 68.5627 377.816 67.5882 377.816 66.5055C378.032 65.4227 377.599 64.4482 376.516 63.582C375.65 62.9323 374.784 62.1744 373.918 61.3082C372.294 60.0089 370.994 58.7096 369.37 57.7351L369.045 57.4103C368.396 57.0854 367.746 56.7606 367.746 56.7606C367.746 56.7606 368.071 56.1109 368.071 55.7861C373.268 55.1365 377.166 57.0854 382.039 62.6075L382.363 62.9324C383.013 63.582 383.663 64.3399 384.312 65.2061C384.962 65.8558 384.962 66.1806 384.962 66.1806C384.962 68.4544 384.637 70.4034 383.988 72.3524C383.771 73.6517 382.797 74.5179 381.064 74.951C378.899 75.6007 376.841 76.3586 374.892 77.2248L371.969 78.1993C370.02 78.8489 368.071 78.1993 366.447 77.2248C362.874 74.951 360.275 72.0275 357.676 66.8303Z" fill="black"/>
<path d="M284.59 80.7979L284.265 80.4731C282.641 79.1737 281.666 77.8744 280.367 76.2503C279.717 75.8172 279.068 75.2758 278.418 74.6262C277.985 73.9765 277.335 73.2185 276.469 72.3523L274.195 69.7537L272.246 72.6772C271.597 73.3268 271.055 73.9765 270.622 74.6262C269.323 76.2503 267.374 76.5751 264.775 76.8999C263.801 76.8999 263.151 76.2503 262.177 74.951L261.527 74.3013C259.578 71.7027 259.253 70.7282 258.928 70.7282C259.253 66.5054 259.903 63.2571 261.527 60.9833C262.177 60.0089 264.775 59.0344 266.724 59.0344C267.807 59.0344 268.565 59.1426 268.998 59.3592L269.323 59.684C269.972 62.9323 272.896 63.2571 274.845 63.582C275.278 63.582 275.603 63.6902 275.819 63.9068C277.768 64.2316 279.068 65.5309 280.367 67.1551C281.233 68.2378 282.099 69.3206 282.966 70.4034C284.265 71.9192 285.564 73.4351 286.863 74.951L287.513 75.6006C288.488 76.5751 289.787 78.1993 292.386 78.1993C292.386 78.5241 292.71 78.5241 292.71 78.8489C292.927 79.7151 293.144 80.6896 293.36 81.7724C293.36 81.7724 293.36 81.8806 293.36 82.0972H293.035C292.169 82.5303 291.303 82.8551 290.437 83.0717C288.163 83.7213 286.539 82.422 284.59 80.7979Z" fill="black"/>
<path d="M350.205 67.48C350.53 69.429 350.855 71.0531 350.855 73.0021C350.855 73.9766 350.53 74.3014 350.53 74.3014C350.53 74.3014 349.88 74.3014 348.581 74.3014C345.658 73.6517 345.333 71.7028 344.683 68.4545C344.683 68.0214 344.683 67.5883 344.683 67.1552C343.709 63.9069 343.384 60.3338 343.059 56.7607C342.734 53.8372 342.409 50.5889 341.76 47.6654C340.785 42.4682 339.811 36.6213 336.562 31.7488C334.614 28.8254 334.938 26.2268 336.887 22.9785C340.46 22.9785 340.46 23.6281 341.76 27.2013L342.409 28.8254C344.683 34.6723 346.307 39.8696 346.632 45.7165C346.957 48.6399 347.607 51.2386 347.931 53.8372C348.581 56.7606 349.231 59.0345 349.231 61.6331C349.556 63.5821 349.88 65.531 350.205 67.48Z" fill="black"/>
<path d="M25.7015 100.612H25.3767C26.0263 100.612 26.3511 100.612 27.3256 100.937C30.2491 102.561 34.147 102.561 37.7201 100.937C46.1657 97.0393 52.9871 90.5427 58.834 81.1227C64.0312 72.0275 66.6299 63.2571 66.6299 53.8371C66.9547 48.315 66.9547 43.1178 66.3051 37.9205C65.9802 34.3474 64.3561 30.7743 63.0568 27.526C62.6237 26.6598 62.1906 25.7936 61.7575 24.9274C60.783 22.6536 56.885 22.6536 56.5602 22.6536C51.6878 22.6536 47.465 24.6025 43.2422 26.5515L41.2933 27.2012C39.0195 28.5005 36.096 29.7998 33.1725 31.4239C30.8987 32.7233 28.9498 34.3474 27.0008 35.9715C25.918 36.6212 24.9436 37.2709 24.0773 37.9205C22.1284 39.4364 20.0711 40.9523 17.9056 42.4681C13.6828 45.7164 9.46006 49.2895 4.58763 51.8882H4.2628C3.28831 52.5378 2.31383 52.8626 1.66417 52.8626C1.44762 52.8626 1.33935 52.8626 1.33935 52.8626C0.68969 52.213 0.364859 50.9137 0.689687 49.9392C0.689687 48.9647 1.01451 48.315 1.66417 47.9902L6.86142 44.4171C12.3835 40.1943 18.2304 36.2964 24.0773 32.3984C25.3767 31.5322 26.676 30.666 27.9753 29.7998C29.9242 28.5005 31.8732 27.2012 33.8222 25.9019C35.7712 24.9274 37.7201 23.9529 39.6691 22.9784C41.4015 22.3287 43.0257 21.5708 44.5415 20.7046C48.1147 18.7556 51.6878 18.4308 55.2609 18.4308C56.5602 18.4308 57.7512 18.4308 58.834 18.4308H62.7319C62.9485 18.8639 63.0568 19.297 63.0568 19.7301C64.0313 21.3543 64.3561 22.3287 65.3306 23.6281C66.6299 24.9274 67.6044 26.5515 68.254 29.1502C68.4706 30.666 68.7954 32.1819 69.2285 33.6978C69.8782 36.6212 70.5278 39.5447 70.8527 42.7929C71.1775 46.6909 71.1775 51.2385 70.8527 56.4358C70.5278 59.0344 70.203 61.633 69.5533 64.2316C69.3368 66.1806 69.012 68.2378 68.5788 70.4034C68.254 74.3013 66.3051 78.1993 64.6809 81.1227C64.2478 81.9889 63.7064 82.8551 63.0568 83.7213C62.0823 85.9951 60.783 88.2689 59.1588 90.2179C55.9105 94.4407 52.0126 98.0138 47.465 101.912C43.567 105.16 39.0195 106.135 34.147 107.434H33.4974C32.8477 107.759 31.8732 107.434 30.8987 107.109C30.2491 106.892 29.5994 106.784 28.9498 106.784C28.3001 106.459 27.9753 105.81 27.0008 104.186C26.5677 102.886 26.1346 101.695 25.7015 100.612Z" fill="black"/>
<path d="M193.313 84.371V82.0972C193.313 82.0972 190.065 81.1227 188.116 78.8489C185.192 75.9254 183.243 73.002 180.645 69.7537L177.397 66.1806C177.18 66.1806 177.072 66.0723 177.072 65.8558C176.639 65.4227 176.206 64.9896 175.772 64.5565C174.148 63.2572 172.849 62.6075 171.55 62.6075C169.276 62.6075 167.977 64.5564 167.002 65.8558C165.053 69.7537 162.779 73.002 158.232 74.3013C155.633 73.002 154.334 70.0785 153.034 66.8303C152.06 64.8813 151.735 61.633 154.009 58.7095C154.442 58.9261 154.767 59.0344 154.983 59.0344C156.608 59.684 157.582 60.0089 158.232 61.9578L159.206 65.2061L161.155 62.2827C161.372 62.0661 161.48 61.8496 161.48 61.633C161.805 61.3082 162.454 60.6585 162.454 60.0089C163.104 58.0599 164.728 56.7606 166.677 55.4613C167.977 54.1619 169.926 54.8116 172.199 55.1364C172.849 55.353 173.499 55.5695 174.148 55.7861C177.072 56.4357 178.696 58.7095 180.97 60.9833L181.619 62.2827C184.651 65.7475 187.575 69.2123 190.39 72.6772C192.339 75.0593 194.288 77.5496 196.237 80.1482C196.453 80.3648 196.67 80.5813 196.886 80.7979C197.211 80.7979 197.536 81.4475 197.536 81.1227C197.211 81.7724 195.912 82.422 195.262 82.422L194.937 84.371H193.313Z" fill="black"/>
<path d="M128.022 71.7027C126.073 73.3268 124.449 74.6261 122.825 75.2758C119.577 76.5751 115.029 77.5496 111.456 76.2503C111.131 76.2503 111.131 76.2503 111.131 76.2503C109.832 75.2758 108.858 73.6517 108.858 71.7027C108.533 69.4289 109.182 67.4799 110.482 66.1806C111.131 65.531 111.673 64.8813 112.106 64.2316C113.73 62.9323 114.704 61.633 116.653 61.3082L117.303 60.9833C117.628 60.9833 118.278 60.6585 118.927 60.6585C118.927 60.6585 119.252 60.6585 119.577 61.3082C120.227 61.9578 120.768 62.824 121.201 63.9068C121.418 64.5565 121.634 65.0978 121.851 65.5309L122.825 67.4799L124.449 66.1806C124.882 65.7475 125.207 65.4227 125.424 65.2061C126.723 64.2316 128.022 63.2571 128.997 61.633C129.322 60.6585 129.647 60.6585 129.971 60.6585C130.405 60.6585 130.729 60.7668 130.946 60.9833C131.812 60.9833 132.678 61.0916 133.545 61.3082H134.194L136.143 63.582C137.876 65.3144 139.5 67.0468 141.016 68.7792C141.882 69.6454 142.748 70.5117 143.614 71.3779C144.914 73.002 146.538 74.3013 147.512 75.6006V75.9255C146.863 77.5496 144.914 78.1992 142.965 77.2248C139.716 75.6006 136.793 73.3268 134.194 69.4289L133.545 68.4544L131.92 69.104C131.487 69.3206 131.054 69.5372 130.621 69.7537C129.755 70.4034 128.889 71.053 128.022 71.7027Z" fill="black"/>
<path d="M81.5721 81.7724C81.3556 81.7724 81.2473 81.7724 81.2473 81.7724C81.0308 81.3393 80.8142 80.9062 80.5976 80.4731L80.2728 79.8234C79.948 78.5241 79.2983 77.5496 79.2983 76.2503C79.2983 74.6262 79.2983 72.6772 79.2983 70.7282C79.2983 69.862 79.2983 68.9958 79.2983 68.1296C79.2983 67.4799 80.5976 65.5309 81.2473 65.5309C82.2218 65.5309 83.5211 66.5054 83.8459 67.1551C84.1708 68.1296 84.4956 69.4289 84.8204 71.053C84.8204 71.7027 84.9287 72.3524 85.1453 73.002L85.4701 75.2758L87.4191 74.3013C90.6673 72.3524 91.9666 69.4289 93.266 66.8303L93.9156 65.5309C94.3487 64.4482 94.7818 63.3654 95.2149 62.2827C95.4315 61.1999 95.7563 60.2254 96.1894 59.3592L96.5142 58.7095C97.1639 57.0854 97.8136 56.4357 98.7881 55.7861C100.412 57.4102 100.737 59.684 101.062 62.6075L101.387 62.9323C100.087 64.5565 99.7625 66.1806 99.4377 67.8048C99.1129 69.1041 99.1129 70.0785 98.4632 70.7282C97.8136 71.5944 97.2722 72.4606 96.8391 73.3268C94.8901 75.6006 93.5908 77.5496 91.317 79.4986C88.0687 81.7724 85.1452 82.7469 81.5721 81.7724Z" fill="black"/>
<path fill-rule="evenodd" clip-rule="evenodd" d="M439.208 55.1365C437.584 56.4358 436.285 57.7351 434.985 59.3592C434.336 60.2254 433.686 60.9834 433.036 61.633L432.387 62.2827L433.686 67.8048C434.661 72.6772 435.635 77.8745 436.934 82.7469C436.934 83.3965 437.043 83.9379 437.259 84.371C437.476 84.8041 437.692 85.2372 437.909 85.6703C437.909 87.9442 436.934 88.5938 435.96 89.2435C435.31 89.46 434.661 89.7848 434.011 90.2179C430.546 88.0524 428.272 85.129 427.189 81.4476C426.107 78.6324 425.24 75.9255 424.591 73.3269C423.941 71.5944 423.4 69.862 422.967 68.1296C422.967 67.9131 422.858 67.8048 422.642 67.8048C422.642 67.1551 422.317 65.2061 420.368 65.2061C421.667 60.3337 420.693 55.4613 419.718 50.9137L419.394 49.6144C418.744 46.0412 419.069 42.4681 419.069 38.895V37.5957C419.394 34.6723 419.718 32.0736 420.043 29.1502L420.368 27.8509C421.343 20.7046 425.89 16.4819 434.011 14.8577C438.234 14.2081 441.807 16.157 445.705 17.7812C446.354 18.106 447.004 19.0805 447.654 20.055C452.526 28.8253 452.201 37.2709 447.004 45.7164C444.73 48.9647 442.456 52.213 439.208 55.1365ZM440.183 43.7675C444.405 40.5192 445.055 36.2964 445.705 32.0736C446.354 28.1757 444.73 24.2777 441.482 22.0039C438.558 19.7301 433.361 20.055 430.113 22.6536L429.463 23.3033V23.9529C429.68 24.8191 429.788 25.4688 429.788 25.9019C429.788 27.2012 429.788 28.3922 429.788 29.475C429.463 36.6212 429.788 43.4426 431.087 50.9137L431.737 54.162L434.011 51.8882C434.444 51.2385 434.877 50.6971 435.31 50.264C436.285 49.2895 436.934 48.6399 437.584 47.6654C438.017 47.0157 438.45 46.3661 438.883 45.7164C439.208 44.7419 439.858 44.0923 440.183 43.7675Z" fill="black"/>
<path d="M596.1 69.7537C596.75 70.0785 597.075 71.053 597.075 72.0275C596.75 73.002 596.425 73.6516 596.1 73.9765C589.604 78.8489 584.082 81.1227 577.91 80.473C576.936 80.473 575.961 79.8234 574.987 79.4986L574.662 79.1737C567.84 75.9254 564.917 72.6772 565.567 63.582C565.891 60.3337 564.592 58.0599 563.293 56.1109C563.509 55.6778 563.618 55.1364 563.618 54.4867C563.618 52.8626 564.592 51.8881 566.866 50.9136C573.687 47.9902 574.987 41.4936 575.311 36.946C575.311 36.7295 575.311 36.2964 575.311 35.6467V32.3984L565.242 35.6467C565.242 35.6467 565.133 35.5384 564.917 35.3219C564.267 34.6722 563.942 34.0225 563.618 33.3729C562.643 31.4239 563.618 29.4749 565.567 28.5005C568.815 26.5515 570.764 26.5515 573.038 27.8508C574.012 28.1756 575.311 28.5005 576.286 28.1756C577.91 28.1756 579.209 28.5005 580.509 30.1246C582.133 31.7487 582.783 32.7232 582.458 34.3474C582.241 35.4301 582.133 36.4046 582.133 37.2708C582.133 38.137 582.025 39.0032 581.808 39.8695C581.808 40.8439 581.158 41.8184 580.509 42.7929C580.292 43.4426 580.076 43.984 579.859 44.4171L579.209 46.366L581.158 46.6909C582.241 46.9074 583.324 47.0157 584.407 47.0157C586.68 47.3405 588.954 47.6653 591.228 47.9902C591.553 48.315 592.203 48.9647 592.527 49.2895C592.744 49.506 592.961 49.6143 593.177 49.6143C592.852 51.2385 592.203 51.8881 590.254 51.8881C587.33 52.213 584.407 53.1874 581.483 53.8371C580.4 54.2702 579.318 54.595 578.235 54.8116C574.987 55.7861 571.414 60.0088 571.089 63.9068C570.764 66.8302 573.038 71.3778 576.286 72.3523C577.91 73.002 580.509 73.002 582.783 72.6772C585.706 72.0275 588.305 71.053 590.903 70.0785C591.878 69.4289 592.852 68.7792 593.502 68.1296C593.718 68.1296 593.827 68.1296 593.827 68.1296C594.693 68.5627 595.451 69.104 596.1 69.7537Z" fill="black"/>
<path d="M654.57 42.4681C654.786 41.6019 655.003 40.7357 655.219 39.8695C655.869 37.5957 656.843 37.2709 657.818 37.2709C658.251 37.2709 658.684 37.3791 659.117 37.5957L668.212 39.5446L666.913 32.3984C666.48 28.9336 665.939 25.577 665.289 22.3287C665.072 21.4625 664.856 20.488 664.639 19.4053C663.99 15.1825 663.015 11.2846 663.665 7.06179C663.99 6.08731 664.639 4.78799 665.289 3.81351C665.614 3.81351 665.939 3.81351 665.939 3.81351C668.862 4.46316 669.837 6.08732 669.837 9.33561C669.512 16.8067 671.136 24.2777 672.435 31.4239L673.085 34.6722C674.059 40.844 675.359 47.0157 676.333 53.8371C676.333 54.8116 676.333 55.7861 676.333 56.7606C676.333 56.7606 676.333 56.8688 676.333 57.0854L673.41 58.7095C672.76 58.3847 672.11 57.7351 671.786 55.1364C671.786 53.5123 671.461 51.8881 670.811 50.5888C670.594 49.9392 670.486 49.2895 670.486 48.6399L668.537 41.4936L666.588 42.1433C665.939 42.5764 665.397 42.9012 664.964 43.1178C663.34 43.7674 662.041 44.4171 661.066 45.0667C659.983 45.7164 659.117 46.0412 658.468 46.0412C657.818 46.0412 657.168 45.7164 655.869 44.4171C655.436 43.7674 655.003 43.226 654.57 42.7929V42.4681Z" fill="black"/>
<path d="M639.627 13.2336C639.627 10.3102 639.952 7.38672 638.328 4.46326C638.328 4.13843 638.653 3.48877 638.978 2.83912C639.194 1.97291 639.519 1.21496 639.952 0.565302V0.240479C640.385 0.240479 640.818 0.240479 641.252 0.240479C644.825 0.240479 645.474 2.51428 645.474 4.78808C645.691 6.30395 645.799 7.92809 645.799 9.66051C645.799 12.2591 645.799 14.8578 645.799 17.4564C646.016 19.6219 646.341 21.7875 646.774 23.953C646.99 25.2523 647.098 26.6599 647.098 28.1757C647.315 29.6916 647.423 31.2075 647.423 32.7233C647.748 34.9971 647.748 37.2709 648.398 39.5447C649.047 43.7675 649.697 47.6655 650.672 51.5634L651.646 55.1365C651.646 56.111 651.971 57.0855 652.621 58.06C653.92 59.3593 653.92 61.6331 653.27 61.6331H649.697C646.774 58.3848 645.799 54.4868 644.825 49.6144L644.5 47.9903C642.876 40.5192 641.901 32.7233 640.927 25.2523C640.494 22.8702 640.169 20.3799 639.952 17.7812C639.627 16.1571 639.627 14.8578 639.627 13.2336Z" fill="black"/>
<path d="M547.376 49.2895C543.695 50.8054 540.23 52.4295 536.982 54.162C535.683 54.8116 532.759 56.4358 533.084 60.3337L533.409 62.9324L535.683 61.3082C536.982 60.6586 537.632 61.3082 538.931 61.9579C539.581 62.391 540.338 62.7158 541.205 62.9324C541.53 63.582 541.854 65.8558 541.529 66.1806C539.905 67.4799 537.956 68.1296 535.683 68.1296C532.434 68.1296 529.511 66.5054 527.887 64.2316C527.67 63.7985 527.454 63.3655 527.237 62.9324C527.02 62.2827 526.696 61.633 526.263 60.9834L525.938 60.3337C525.288 59.0344 524.314 57.7351 522.689 56.7606C521.607 55.8944 520.957 54.9199 520.74 53.8371C520.74 53.1875 521.065 52.4296 521.715 51.5634L523.014 49.6144C527.562 50.264 531.135 47.9902 533.409 45.7164C535.683 43.4426 538.931 41.8185 541.854 40.5192C542.287 40.3026 542.612 40.1944 542.829 40.1944C545.752 40.1944 549.65 43.1178 549.975 45.3916C550.3 46.3661 548.676 48.6399 547.376 49.2895Z" fill="black"/>
<path d="M511.97 43.7676C509.804 45.2835 508.83 47.6655 509.046 50.9138C509.046 52.2131 508.722 52.2131 508.397 52.5379C506.773 53.1876 506.773 55.1366 506.773 56.7607C506.989 58.06 507.098 59.3593 507.098 60.6587C507.422 64.8814 507.747 69.1042 508.722 73.6518C509.047 75.2759 508.722 75.9256 507.747 76.2504C507.098 76.6835 506.34 77.0084 505.473 77.2249L505.149 77.5498C503.524 76.5753 502.875 74.6263 502.225 71.378L501.9 71.0532C500.926 64.2318 499.626 57.4104 495.404 51.2386C494.429 49.6145 493.13 47.9904 491.831 46.691C488.907 43.7676 488.257 41.8186 490.531 38.8952C493.455 39.22 494.754 40.1945 499.951 46.691L501.575 48.64L502.55 46.691C502.983 46.0414 503.308 45.5 503.524 45.0669C503.849 44.0924 504.174 43.4427 504.499 43.1179C506.773 41.1689 507.747 40.8441 507.747 40.8441C508.18 41.0607 508.722 41.1689 509.371 41.1689C510.995 41.4938 511.645 41.8186 511.97 42.4683C511.97 42.7931 512.295 43.4428 512.295 43.4428C512.295 43.4428 512.187 43.551 511.97 43.7676Z" fill="black"/>
<path d="M469.742 57.0856C468.768 57.7352 467.793 58.7097 467.144 59.3593C466.277 60.4421 465.195 61.5249 463.895 62.6076C461.621 64.5566 459.348 66.5056 458.048 69.1042V69.4291C457.723 70.0787 457.074 71.0532 457.399 72.0277C457.615 72.8939 458.265 73.5435 459.348 73.9766L460.322 74.3015L464.545 71.7028C465.844 72.0277 466.819 73.327 468.118 74.6263C466.819 78.8491 462.271 82.0973 458.373 81.7725C456.208 81.556 454.259 80.0401 452.526 77.2249C448.303 71.378 448.953 65.8559 454.15 58.7097C456.749 55.1366 460.322 52.538 463.246 50.589C463.679 50.3724 464.112 50.2642 464.545 50.2642C465.195 50.2642 466.169 50.589 466.819 50.589C467.252 50.8055 467.685 51.0221 468.118 51.2386C469.417 51.5635 469.742 51.8883 470.067 53.1876C470.067 54.4869 470.392 55.4614 470.392 56.1111C470.175 56.5442 469.959 56.869 469.742 57.0856Z" fill="black"/>
<path d="M475.914 24.6026L479.162 27.5261C478.946 27.7426 478.837 27.8509 478.837 27.8509C478.512 28.5006 477.863 29.1502 477.538 29.4751C474.29 31.0992 472.99 34.0227 472.016 36.9461C471.366 38.5703 470.392 39.5447 468.768 40.8441C467.793 41.8185 466.819 42.793 466.169 43.7675C466.169 43.7675 466.061 43.7675 465.844 43.7675C466.061 42.6848 466.061 41.7103 465.844 40.8441C465.844 39.2199 465.519 37.5958 466.169 36.2964C468.443 30.7744 470.717 26.5516 475.914 24.6026Z" fill="black"/>
<path d="M695.173 47.3406L698.097 50.2641C698.746 50.9137 699.396 53.5124 698.746 54.162C698.422 54.8117 696.473 55.7862 695.173 55.7862H694.848C692.25 54.8117 691.6 54.162 691.925 52.2131C691.925 51.5634 691.925 50.5889 691.6 49.9393C691.6 49.9393 691.6 49.831 691.6 49.6144C692.25 49.1813 692.899 48.7482 693.549 48.3151C693.982 48.0986 694.524 47.7737 695.173 47.3406Z" fill="black"/>
</svg>
