<!-- Generator: Adobe Illustrator 23.0.0, SVG Export Plug-In  -->
<svg version="1.1" xmlns="http://www.w3.org/2000/svg" xmlns:xlink="http://www.w3.org/1999/xlink" x="0px" y="0px" width="36.8px"
	 height="72.9px" viewBox="0 0 36.8 72.9" style="enable-background:new 0 0 36.8 72.9;" xml:space="preserve">
	 <style type="text/css">
	.relleno{fill:#FFFFFF;}
	</style>
<defs>
</defs>
<g>
<path class="relleno" d="M25.1,28.1c0.5-0.6,1-1.1,1.5-1.7c0.3-0.4,0.6-0.8,0.8-1.2c0.2-0.5,0-0.9-0.4-1.2c-0.2-0.1-0.6-0.1-0.8-0.1
	c-1,0.3-1.7,1.1-2.5,1.8c-0.5,0.4-1,0.7-1.5,1.1c-0.1,0.1-0.3,0.2-0.4,0.3c-0.4,0.2-0.7,0.5-1.1,0.5c-1.5,0.2-2.8-0.1-4.1-1
	c-1.1-0.8-2.3-1.6-3.4-2.3c-0.7,0-1.3-0.1-1.7-0.8c0,0-0.5,0.1-0.6,0.3c-0.1,0.1,0,0.4,0.1,0.6c0,0-0.1,0.1-0.1,0.2
	c-0.1,0.4,0.2,0.8,0.3,1.1c0.1,0.2,0.3,0.4,0.5,0.5c0.1,0.2,0.2,0.4,0.3,0.5c1.4,1.5,3,2.7,4.9,3.4c0.4,0.1,0.8,0.3,1.2,0.5
	c0.1,0,0.1,0,0.2,0c0.4,0.1,0.8,0.1,1.3,0.2c0.4,0,0.7,0,1.1,0c0.1,0,0.3-0.1,0.4-0.1C22.8,30.3,24,29.4,25.1,28.1z M36.5,67.7
	c-0.3-0.4-0.7-0.7-1-1c-0.6-0.4-1.2-0.7-1.8-1.2c-1.3-1.1-2.6-2.2-3.8-3.4c-0.9-0.9-1.7-1.8-2.5-2.8c-0.6-0.7-1.2-1.5-1.8-2.2
	c-0.3-0.4-0.6-0.9-1.3-0.9c-0.1,0-0.3-0.4-0.3-0.6c-0.1-0.5-0.1-1-0.2-1.5c-0.1-0.9-0.3-1.9-0.5-2.8c-0.1-1-0.3-2-0.4-3.1
	c0-0.4,0-1,0.2-1.3c0.4-0.6,1-1.1,1.5-1.6c0.3-0.3,0.6-0.7,1-0.8c0.9-0.2,1.4-0.9,1.9-1.5c0.3-0.4,0.8-0.6,1.2-0.9
	c0.7-0.5,1.3-1,2-1.6c0.3-0.2,0.6-0.5,0.9-0.7c0.4-0.3,0.8-0.5,1.1-0.7c0.7-0.4,1.3-0.9,2-1.3c1-0.5,1.3-1.1,1.2-2.2
	c-0.1-1.4-1-1.9-2.2-1.2c-1,0.6-2,1.2-2.9,1.9c-1.3,0.9-2.6,1.8-3.9,2.7c-0.3,0.2-0.7,0.4-1,0.6c-0.9,0.8-1.8,1.6-2.6,2.4
	c-0.1,0.1-0.3,0.2-0.5,0.3c-0.4,0.1-0.5,0-0.7-0.4c-0.5-1.8-0.4-3.6-0.4-5.4c0-1,0.2-1.2,1.3-1.4c1.1-0.1,2.2-0.1,3.2-0.5
	c0.3-0.1,0.7-0.3,1-0.3c1.7-0.2,3.2-0.8,4.2-2.2c0.1-0.1,0.2-0.2,0.3-0.3c0.9-0.9,1.6-1.8,2.1-3c0.6-1.5,1-3,1.4-4.6
	c0.4-1.5,0.5-3.1,0.2-4.7c-0.2-1.4-0.5-2.9-0.7-4.3c-0.1-0.6-0.3-1.2-0.6-1.7c-0.4-0.8-0.8-1.5-1.3-2.2c-0.3-0.5-0.6-1.1-1-1.6
	c-0.5-0.5-1.2-0.9-1.7-1.4c-0.3-0.2-0.4-0.5-0.1-0.8c0.3-0.2,0.4-0.5,0.7-0.8c0.1-0.1,0.3-0.3,0.4-0.3c1,0.1,1.7-0.4,2.4-0.9
	c0.2-0.1,0.4-0.5,0.4-0.6c-0.1-0.3-0.4-0.6-0.7-0.6c-1.7-0.1-3.4-0.4-4.9,0.8c-0.6,0.5-1.3,0.8-2.2,0.2c-0.6-0.4-1.4-0.5-2.1-0.5
	c-0.7,0-1.1-0.3-1.5-0.8c0.4-0.3,0.8-0.7,1.2-1c0.2-0.2,0.4-0.3,0.6-0.5c0.1-0.2,0.4-0.6,0.3-0.7c-0.2-0.3-0.5-0.6-0.8-0.6
	c-1.3,0-2.6,0.2-3.4,1.5c-0.5,0.8-1.1,1.5-2,2c-0.5,0.2-1,0.4-1.5,0.5c-0.6,0.1-1.2,0.1-1.7,0.1c-0.3,0-0.6,0.1-0.8-0.1
	c-1-0.8-1.3-2.1-0.8-3.2c0.2-0.4,0.3-0.7,0.4-1.1c0.1-0.4,0-0.6-0.4-0.8c-0.7-0.3-1.5,0-1.9,0.8C11,2.3,10.9,3.7,11,5.2
	c0.1,1.2,0,1.5-1,2.2C9.5,7.7,9.1,7.9,8.6,8.2c-0.5,0.3-1,0.3-1.5,0.2C6.6,8.3,6,8.2,5.5,8.2c-0.4,0-0.8,0.1-1.1-0.1
	C3.8,7.9,3.3,7.5,2.7,7.3C2.3,7.1,1.9,7,1.5,6.9c-0.4,0-0.8,0-1.1,0.2c-0.7,0.5-0.3,1.7,0.4,2.1c1,0.7,2.2,0.6,3.3,0.9
	c0.4,0.1,0.8,0.4,1.1,0.7c0.1,0.1-0.2,0.6-0.4,0.8c-1.2,1.1-1.7,2.6-2.6,3.9c-0.1,0.1-0.1,0.2-0.1,0.3C1.9,16.9,1.6,18,1.5,19
	c-0.1,1-0.3,2-0.1,3c0.2,1.1,0.6,2.1,1,3.1c0.2,0.5,0.5,1.1,0.8,1.5c0.8,1.1,1.7,2.1,2.6,3.1c0.7,0.8,1.5,1.5,2.6,1.8
	c0.5,0.1,1,0.5,1.5,0.7s1.1,0.5,1.6,0.7c0.6,0.2,1.3,0.4,1.9,0.7c1.5,0.6,2.9,1.2,4.6,1.1c0.2,0,0.7,0.2,0.7,0.5
	c0.2,0.6,0.3,1.2,0.3,1.8c0,1.1-0.2,2.2,0.3,3.3c0.1,0.2,0.1,0.4,0.1,0.6c0,0.4,0,0.7-0.1,1.1c-0.1,0.3-0.3,0.6-0.6,0.7
	c-0.4,0.1-0.8,0-1.2-0.1c-1.4-0.3-2.7-0.6-4.1-0.9c-0.8-0.2-1.6-0.3-2.4-0.4c-1-0.2-2-0.5-3-0.7c-1.2-0.1-2.3-0.4-3.4-0.9
	C4,39.4,3,39.9,2.7,40.6c-0.3,0.6-0.1,1.2,0.5,1.6c0.4,0.3,0.9,0.5,1.5,0.5c0.4,0,0.9,0.1,1.3,0.3c1,0.5,1.9,0.8,3,1
	c2,0.4,4,1,6.1,1.1c0.1,0,0.2,0,0.3,0.1c1,0.3,1.9,0.7,2.9,1c0.7,0.2,1.4,0.9,1.5,1.6c0.1,0.7,0.2,1.4,0.3,2.2
	c0.1,0.9,0.3,1.8,0.5,2.6c0.1,0.3,0.2,0.7,0.2,1c0,0.7,0.2,1.3,0.4,1.9c0.4,1.1,0.7,2.3-0.4,3.2c-0.4,0.4-0.7,0.8-1.1,1.3
	c-0.6,1-1.2,2-1.9,2.9c-0.8,1.2-1.6,2.3-2.4,3.4c-0.9,1.2-1.7,2.4-2.6,3.6c-0.7,0.9-0.6,2.1,0.3,2.8c0.1,0.1,0.3,0.2,0.5,0.2
	c1.1-0.3,2-0.8,2.6-1.7c0.6-0.7,1.1-1.6,1.7-2.2c1.4-1.3,2.3-3,3.3-4.6c0.7-1.1,1.3-2.3,2-3.4c0.4-0.6,1.1-0.7,1.6-0.2
	s1.2,0.8,1.4,1.6c0.4,1.2,1.6,1.8,2.5,2.6c0.5,0.5,1.1,1,1.6,1.5s1.1,0.8,1.6,1.3c0.7,0.7,1.6,1.3,2.5,1.9c0.8,0.4,1.6,0.2,2-0.4
	C36.9,69,37,68.4,36.5,67.7z M21.2,32.4c-0.5,0.1-1.1,0-1.6,0s-1,0-1.5,0c-0.1,0-0.1,0-0.2,0c-1.3-0.2-2.6-0.5-3.9-0.7
	c-1.3-0.3-2.5-0.9-3.6-1.6c-0.7-0.4-1.5-0.7-2.1-1.2c-1-0.8-2-1.6-2.6-2.8c-0.2-0.4-0.3-0.9-0.6-1.3c-0.1-0.2-0.3-0.3-0.4-0.5
	c-0.2-0.3-0.5-0.5-0.5-0.8c-0.1-1-0.3-2-0.1-2.9c0.3-1.7,0.7-3.4,1.8-4.8c0.4-0.4,0.6-0.9,1-1.4c0.3-0.3,0.6-0.6,0.9-0.9
	C8,13.3,8.2,13,8.4,12.8c0.2-0.1,0.4-0.2,0.6-0.4c0.3-0.2,0.7-0.4,1-0.7c0.3-0.3,0.5-0.6,0.9-0.6c0.2,0,0.5-0.2,0.7-0.4
	c0.9-1.1,2.2-1.4,3.5-1.4c1.1,0,2.1-0.1,3.1-0.6c0.1-0.1,0.3-0.2,0.5-0.1c0.7,0,1.1-0.2,1.1-0.9c0.4,0,0.6,0,0.9-0.1
	C21.9,7.3,23,7.7,24.2,8c1.3,0.4,2.3,1.2,3.3,2c0.4,0.3,0.8,0.6,1.1,0.9c1,0.8,2.1,1.5,2.4,3c0,0.1,0,0.1,0.1,0.2
	c1,0.8,1,2.1,1.3,3.2c0.4,1.4,0.6,2.9,0.5,4.4c-0.1,2-0.4,3.9-1.2,5.8c-0.7,1.6-1.7,2.8-3,3.7c-0.3,0.2-0.7,0.3-1,0.4
	c-1.4,0.5-2.9,0.7-4.4,1C22.4,32.5,21.8,32.5,21.2,32.4z M20.5,21.7c0.2,0.1,0.4,0.2,0.6,0.2c0.6,0,1.2-0.3,1.4-0.9
	c0.1-0.4,0.2-0.7,0.5-1c0.5-0.6,0.5-1-0.1-1.5c-0.5-0.4-1-0.8-1.5-0.8c-1.1,0-1.7,0.3-2.1,0.8c-0.1,0.2-0.3,0.3-0.4,0.6
	c0,0.2-0.1,0.4,0,0.5C19.2,20.4,19.7,21.2,20.5,21.7z M15.9,21.5c0.4,0,0.9-0.1,1-0.3C17,21.1,17,21.1,17,21c0-0.5,0-1.1,0-1.6
	c0-0.4,0.1-0.8,0-1.1c0-0.3-0.1-0.6-0.3-0.7c-1.4-0.7-2.6,0.3-2.6,1.6c0,0.6,0,0.7,0.8,1.9C15,21.4,15.4,21.5,15.9,21.5z"/>
	<animate
      id="frame1"
      attributeName="display"
      values="inline;none;none;none"
      keyTimes="0;0.33;0.66;1"
      dur="200ms"
      begin="0ms"
      repeatCount="indefinite" />
</g>
<g>
<path class="relleno" d="M24.8,27.7l1.3-1.9l0.8-1.2l-0.1-1.3l-1-0.3l-2.4,2.2l-1.5,1.1l-0.4,0.3l-1,1l-4-1.7l-3.6-1.8l-1.8-0.8l-0.5,0l0.8,0.7
	l-0.7,0.2l0.4,1.1L11,26l0.2,0.6l5.3,3.1l1.5-0.2l0,0.3l1.2,1.2l1.2-0.6l0.3-0.5L24.8,27.7z M36,67.3l-1.2-0.7l-1.5-1.6l-4.2-3
	l-2.3-3l-1.8-2.2l-1.2-1.5l0.1-0.2l-0.6-1.4l-0.1-2.9l-1.1-3l0.8-1.1l1.1-1.8l0.9-1.2l1.8-1.3l1.1-1.2l2-1.6l0.9-0.8l1.3-0.4
	l2.3-0.8l0.9-2.5l-2.4-1.6l-2.9,1.9l-3.6,3.1l-1.1,0.5l-2.7,2.3l-0.5-0.1l-0.3,0.1l-0.3-5.3l1-1.3l3.1-0.8l1.1,0.1l4.7-2.1l-0.7-1.2
	l2.9-2.4l1.6-4.6L35.1,19L34,14.8l0.1-2l-1.4-2.2l-1.6-1.1l-1.4-1.7L30,7.5l0.2-1.3l0.4,0.1l2.7-0.8L33,4.6l-0.2-1.4L28.2,5L26,4.4
	l-2.4,0.4l-2.2-1.2l2-0.9L23.8,2l-0.1-0.3l-0.3-0.2l-3,1.1l-2.1,2.3l-1.7,0.4l-1.8-0.3l-0.7-0.3l-0.3-2.8l0.5-1.2L13,0l-1.8,0.4
	l0.1,4.3L9.5,6.9L8.3,8L6.7,8.1L5.1,8.4L4,7.6l-1.6-1L1,6.8L0,6.7l0.7,1.6l3,1.2l0.8,1.1l0,0.6l-2.9,3.7l-0.4,0.3L1,18.5l0.7,2.9
	l0,3.4l0.6,1.8l3.2,2.7l2.7,1.5l1.7,0.4l1.4,1.3l1.8,0.9l4.7,1.6l1.1-0.2l0.4,1.9l-0.1,3.2l-0.3,0.7l-0.1,1.1l-0.3,1.4l-1.3-1.1
	L13,41l-2.4-0.5l-3-0.5l-3.5-0.6l-1.7,0.7l0,2.1l1.9,0.3l1.5-0.3l2.7,1.9l6.2,0.6l0.2,0.3l3,0.9l1.6,1.4l0.5,2.2l1,2.4l0.2,1.2
	l-0.5,2l-0.2,3l-1.2,1.3l-1.9,2.9l-2.4,3.4l-2.2,3.9l-0.2,3l0.7-0.6l3-1l1.1-2.8l3.4-4.4l2.1-3.4l1.9-0.4l0.5,2l3,2.6l1.9,1.2
	l1.1,1.8l2.5,2.1l2.7-0.7L36,67.3z M20.8,31.9l-1.6,0.3l-1.5,0l-0.2-0.4l-3.9-0.9L10,29.6l-2.1-1.2l-2.6-2.8l-1.1-1l0.2-0.9l-1-0.7
	l-0.1-3l2.2-4.7L6,13.5l1.4-0.5l0.6-0.8l0.9,0l1.2-0.6l0.5-0.9l0.2-0.9l4-1.3l3.4,0.3l0.2-0.6L19,7l1.3,0.1l3.6,0L27.5,9l0.6,1.6
	l2.2,3l0.5,0l0.6,3.5l1.7,4.2l-2.4,5.5l-2.7,3.4l-0.7,0.7l-4.3,1.3L20.8,31.9z M20,21.3l0.7-0.1l1.2-0.7l0.9-0.8l0-2L21,17.2
	l-2.2,0.9l-0.4,0.6l0.5,0.3L20,21.3z M15.5,21.2l0.9-0.5l0-0.1l0.4-1.6l0.2-1.2l-0.7-0.7l-2.7,1.7l0.8,1.9L15.5,21.2z"/>
	<animate
      id="frame2"
      attributeName="display"
      values="none;inline;none;none"
      keyTimes="0;0.33;0.66;1"
      dur="200ms"
      begin="0ms"
      repeatCount="indefinite" />
</g>
<g>
<path class="relleno" d="M25,28.4c0.6-0.6,1.2-1.2,1.7-1.7c0.2-0.5,0.5-0.8,0.6-1.2c0.2-0.5,0-1-0.3-1.3c-0.4-0.1-0.8,0-0.9,0
	c-1.1,0.3-1.7,1-2.5,1.7c-0.4,0.4-0.8,0.7-1.4,1.1c0,0.1-0.2,0.3-0.5,0.3c-0.3,0.2-0.6,0.5-1,0.6c-1.6,0.2-2.7-0.2-4-1
	c-1.4-0.9-2.5-1.5-3.7-2.4c-0.6,0.1-1.3,0-1.7-0.7c0-0.1-0.2,0.1-0.4,0.2c-0.1,0.2-0.1,0.5,0.1,0.7c0-0.1-0.3,0.1-0.2,0.2
	c0.1,0.4,0.3,0.9,0.4,1c0.1,0.2,0.1,0.5,0.4,0.6c0.1,0.1,0.1,0.3,0.2,0.5c1.5,1.5,3.2,2.6,5.1,3.3c0.3,0.1,0.6,0.3,1.3,0.5
	c0,0-0.1,0.1,0.1,0c0.2,0.1,0.8,0.1,1.3,0.2c0.3,0,0.6,0,1,0c0.2,0.1,0.4-0.1,0.7-0.1C22.9,30.5,23.8,29.6,25,28.4z M36.3,67.6
	c-0.4,0.1-0.6-0.7-0.5-0.8c-1.1-0.5-1.3-0.1-2.3-0.5c-0.9-1.9-2.3-3-3.3-3.5c-1-0.8-2.3-2.8-2.8-2.9c-0.9-0.6-1.1-1.9-1.5-1.9
	c-0.4-0.9-1-1.9-1.4-2c-0.1-0.1-0.5-0.5-0.3-0.5C24,55.7,24,54.5,23.9,54c-0.2-0.2-0.4-1.1-0.8-1.9c-0.1-1.1,0.2-2.1,0-4.4
	c-0.6,0.1-0.6-1,0.2-1.2c-0.1-0.1,0.6-0.4,1.1-0.8c0.2-0.3,0.5-0.6,1.5-0.6c0.7-0.5,0.8-1.2,1.4-1.3c0.6-1,0.6-1.9,1.1-1.4
	c0.8-0.4,1.4-1.7,2.5-1.6c0.3-0.9,0.3-0.1,0.9-0.8c0.4,0.2,0.6-0.1,0.9-1.5c1-0.2,1.6,0.3,1.9-0.3c1.3-1.2,1.5-1.7,1.1-3.2
	c0.4,0-0.6-0.7-2.1-0.4c-0.9,0.5-1.9,0.5-3.1,1.2c-1,2-2.3,2.1-3.9,3.3c-0.1,0.4-0.4,0.1-0.8,0.3c-0.8,1-1.8,2.6-2.4,2.4
	c-0.3-0.1-0.2,0.8-0.4,0.9c-0.4,0-0.9,0.1-0.8-1.1c-0.6-2-0.2-3.4-0.4-5.2c-0.4-0.4,0.3-0.8,1.3-1.2c1.1,0.3,1.8,0.1,3.2,0.1
	c0.1-0.2,0.7-0.9,1-1c1.4,0.5,3.3-0.4,4.2-1.8c-0.3,0.3-0.3-0.2,0.4-0.7c0.3-1.3,1.4-1.2,2.2-2.5c0.1-1.2,0.7-3.9,1.3-5.2
	c0.5-1.8,0.3-2.3-0.3-4.8c0.1-1.4-0.6-2.4-0.4-3.6c-0.4-0.8-0.7-1-0.4-2c-0.7-0.6-0.8-1.2-1.6-2c-0.2-0.7-0.3-1.8-1.3-1.3
	c-0.3-1-0.8-1.2-1.1-2.2c-0.8,0-0.6,0.1-0.6-0.9c0.3-0.3,1-0.5,1.1-0.1c0.1,0-0.1-1.3,0.5-0.5c0.5-0.9,1.6-1,2.5-1.1
	C34,6.3,34,5.5,34,5.8c-0.4-0.4-0.8-1.2-0.6-1.3c-2.2-0.8-3.4-0.4-5.4,0.4c-0.6,0.8-1.1,1.5-1.7,1c-1.2-0.4-1.9-1.2-2.7-1.5
	c-0.2,1-0.7,0.7-1-0.3c-0.1-0.5,0.3-0.7,1.1-1.1c0.3-0.2,0.2-0.4,0.5-0.3c-0.2-0.7,0.2-0.6,0.3-0.9c-0.7,0.3-0.5-1-0.9-0.7
	C22.8,1,20.8,1.9,20,2.4c-0.2,2-1,2.6-1.7,1.8c-0.7,0.2-0.8,0.4-1.3,1.6c-0.7-0.5-1-0.2-2.2-0.3c-0.1,0.5-0.2,0.4-0.4-0.5
	c-1.4,0.2-1.2-2-0.6-3c0-0.8,0.1-0.2,0.2-1.7c0.3-0.3,0-0.2-0.3-0.1c-0.5-0.9-1.4,0.3-2.1,0.5c-0.5,2-0.9,2.9-0.5,4.8
	c0.2,0.7,0.1,1.8-0.9,2.4C9.7,7.4,9,8.8,8.4,8.4c-0.2,0.7-1-0.2-1,0.7C6.7,9.1,6.2,9,5.5,7.8C5.1,9,5,7.9,4.3,7.7
	c-0.8,0.1-0.8,0-1.6-0.3C2.3,6.9,1.6,7.5,1.6,7C0.8,6.9,0.3,7.4,0.1,7.3C0,8-0.3,9.7,1,8.9c0.4,0.6,1.9,1,3.4,1.9
	c-0.1-0.6,0.6,0.6,1.1,0c-0.2,0-0.7,0.3-0.9,0.4c-1.2,2.5-1.6,4-2.3,4.2c-0.4,0.7,0,0-0.3,1.3c0.2,0.7-0.2,1.3-0.5,2.9
	c0.1,0.2-0.5,2.1-0.3,2.4c0.3,0.5,1,2.3,1,2.6c0.7,0.8,0.7,1.4,1.1,2.7c0.8-0.1,1.6,1.2,2.6,2.6c0.6,0.7,1.8,2.1,2.6,2.4
	c0.7-0.4,1.3-0.8,1.2-0.3c0.6,0.1,1.5,0.5,1.8,1.7c0.3,0,1.3-0.6,1.6,0.4c1.7,0.4,3.3,0.3,4.8,0.5c-0.1-0.3,1.1-0.1,1,0.6
	c0.2,1,0.3,2,0.1,2.7c-0.1,0.7,0.1,1.2,0.6,2.9c-0.1,0.2-0.1,0.2,0,0.6c-0.2-0.4-0.1-0.1-0.7,1.4c-0.1-0.5,0.2,0-0.1-0.2
	c-0.4,0.4-0.7,0.1-1.2,0.8c-1.8-1.2-3.2-0.8-4.5-1.2c-0.3-1.1-1.6-0.3-2.1-0.2c-0.9-0.2-2-1.4-2.8-0.8c-1.8-0.2-2.7-0.5-3.7-2
	c-0.5,0.9-1.6,1-1.6,2.2c-0.9,0-0.7,0,0.4,1.1c0.3,0.7,0.6,0.7,1.6,0.4c0.2-0.3,0.5-0.6,0.8,0.4c1.1,0.4,2.4,0.5,3,0.3
	c2.1,1.5,4.1,1.4,6.5,1.8c-0.3-0.7-0.4-0.8,0,0.6c0.7,0.1,2-0.6,3,0.4c0.5,0.7,1.3,1.5,1.7,1.8c-0.2,0.8-0.1,1.9-0.2,2.6
	c0.2-0.3,0.6,1.3,0.6,1.7c0.1,0.3,0.4,0.4,0,1c-0.1,0.4,0.6,1,1.1,2c0.2,1.1,0.2,2.8-0.4,3c-0.6,0.1-1.3,0.9-1.1,1
	c-0.9,2.1-1.4,2-2.4,3.5c-0.8,1.9-1.3,2.4-1.8,3c-0.9,2.3-1.7,2.6-2.7,4.5c-1.2,0.2-0.9,1.6,0.3,2.6c-0.1-0.5,0,0.1,0.6-0.8
	c0.9-0.3,2-0.3,2.3-1.7c0.8-0.4,1-1.6,1.4-1.1c2-1.2,2.4-2.9,3.3-5c0.7-0.8,1.4-2.7,2.4-3.2c0-0.6,1-1.4,1.6,0.1
	c0.2-0.7,1.3,0.5,1.3,1.6c0.7-0.1,1.5,0.7,2.6,1.7c0.7,1.3,1.2,1.1,1.2,1.9c0.6,0.1,1.4,1.1,2.1,1.6c0.5,0.6,1.4,1.2,2.3,1.5
	c0.9,0.7,1.8-0.1,1.6-0.3C36.9,69.4,36.6,68,36.3,67.6z M21.1,32.8c-0.4,0-0.8-0.4-1.3,0c-0.7-0.2-1.2,0-1.8-0.1
	c-0.1-0.1-0.1-0.3,0-0.3c-1.6-0.2-2.9-0.2-4.1-0.4c-1.5-0.2-2.5-1.2-3.7-1.9c-0.5-0.3-1.2-0.6-2-1.2c-0.9-0.8-1.8-1.3-2.7-2.8
	c0-0.5-0.1-1-0.5-1.1c-0.3-0.3-0.2-0.6-0.2-0.6c-0.7-0.6-0.9-0.3-1-1c0.1-0.8-0.3-1.6-0.1-2.5c0.3-1.9,1.2-3.5,2.1-5.3
	c0.4,0.1,0.5-0.4,1-1.1c0.3-0.5,0.3-0.6,0.8-1c0.5-0.2,0.6-0.3,0.8-0.9c0.2-0.2,0,0,0.5-0.1c0.3-0.5,0.6-0.6,0.8-0.6
	c0.6-0.3,0.8-0.8,1.2-0.9c0,0.1,0.2-0.3,0.8-0.4c0.7-1.1,1.9-1.1,3.3-1.3c0.8-0.1,2.1-0.2,3.1-0.7c0-0.2,0.1-0.1,0.3-0.2
	c0.8,0.2,1.2-0.3,1.6-0.8c0.4-0.1,0.3,0,0.8,0.2c0.9-0.7,2-0.2,3.2,0c1.3,0.7,2.5,1.5,3.5,2.2c0.2,0.3,0.8,0.5,0.8,0.9
	c1.3,1,2.2,1.7,2.4,3.1c0.2,0.3,0.4-0.1,0.1,0.2c1,0.6,1.1,2,1.5,3.1c0.4,1.5,0.7,2.8,0.2,4.5c0.2,1.9-0.1,3.9-1,5.7
	c-0.9,1.9-2,2.8-3.1,4c0-0.2-0.6,0.2-1.2,0.3c-0.9,0.4-2.8,0.6-4.4,1.1C22.6,32.6,21.5,32.7,21.1,32.8z M20.4,21.9
	c0.2,0.1,0.5,0.1,0.7,0.2c0.6,0,1.2-0.3,1.3-0.9c0.1-0.4,0.2-0.7,0.5-1c0.5-0.6,0.5-0.9-0.1-1.5c-0.5-0.4-1-0.8-1.5-0.8
	c-1.1,0-1.7,0.3-2.1,0.9c-0.1,0.2-0.2,0.4-0.4,0.6c0,0.2-0.1,0.4,0,0.5C19.1,20.6,19.6,21.4,20.4,21.9z M15.8,21.8
	c0.4,0,0.9-0.1,1-0.3c0.1-0.1,0.1-0.1,0.1-0.2c0-0.5,0-1.1,0-1.6c0-0.4,0.1-0.7,0-1.1c0-0.3-0.1-0.6-0.3-0.7
	c-1.4-0.7-2.6,0.3-2.6,1.6c0,0.6,0,0.8,0.8,1.9C15,21.5,15.4,21.7,15.8,21.8z"/>
	<animate
      id="frame3"
      attributeName="display"
      values="none;none;inline;none"
      keyTimes="0;0.33;0.66;1"
      dur="200ms"
      begin="0ms"
      repeatCount="indefinite" />
</g>
</svg>









