<?xml version="1.0" encoding="utf-8"?>
<!-- Generator: Adobe Illustrator 22.1.0, SVG Export Plug-In . SVG Version: 6.00 Build 0)  -->
<svg version="1.1" id="Capa_1" xmlns="http://www.w3.org/2000/svg" xmlns:xlink="http://www.w3.org/1999/xlink" x="0px" y="0px"
	 viewBox="0 0 198 76" style="enable-background:new 0 0 198 76;" xml:space="preserve">
<style type="text/css">
	.st0{fill:#FFFFFF;}
</style>
<g>
	<g>
		<path class="st0" d="M107.6,25c-0.2-0.1-0.6-0.1-0.8-0.1c-1,0.3-1.7,1.1-2.5,1.8c-0.5,0.4-1,0.7-1.5,1.1c-0.1,0.1-0.3,0.2-0.4,0.3
			c-0.4,0.2-0.7,0.5-1.1,0.5c-1.5,0.2-2.8-0.1-4.1-1c-1.1-0.8-2.3-1.6-3.4-2.3c0,0,0,0,0,0c-0.7,0-1.3-0.1-1.7-0.8
			c0,0-0.5,0.1-0.6,0.3c-0.1,0.1,0,0.4,0.1,0.6c0,0-0.1,0.1-0.1,0.2c-0.1,0.4,0.2,0.8,0.3,1.1c0.1,0.2,0.3,0.4,0.5,0.5
			c0.1,0.2,0.2,0.4,0.3,0.5c1.4,1.5,3,2.7,4.9,3.4c0.4,0.1,0.8,0.3,1.2,0.5c0.1,0,0.1,0,0.2,0c0.4,0.1,0.8,0.1,1.3,0.2
			c0.4,0,0.7,0,1.1,0c0.1,0,0.3-0.1,0.4-0.1c1.7-0.4,2.9-1.3,4-2.6c0.5-0.6,1-1.1,1.5-1.7c0.3-0.4,0.6-0.8,0.8-1.2
			C108.2,25.7,108,25.3,107.6,25z"/>
		<path class="st0" d="M117.1,68.7c-0.3-0.4-0.7-0.7-1-1c-0.6-0.4-1.2-0.7-1.8-1.2c-1.3-1.1-2.6-2.2-3.8-3.4
			c-0.9-0.9-1.7-1.8-2.5-2.8c-0.6-0.7-1.2-1.5-1.8-2.2c-0.3-0.4-0.6-0.9-1.3-0.9c-0.1,0-0.3-0.4-0.3-0.6c-0.1-0.5-0.1-1-0.2-1.5
			c-0.1-0.9-0.3-1.9-0.5-2.8c-0.1-1-0.3-2-0.4-3.1c0-0.4,0-1,0.2-1.3c0.4-0.6,1-1.1,1.5-1.6c0.3-0.3,0.6-0.7,1-0.8
			c0.9-0.2,1.4-0.9,1.9-1.5c0.3-0.4,0.8-0.6,1.2-0.9c0.7-0.5,1.3-1,2-1.6c0.3-0.2,0.6-0.5,0.9-0.7c0.4-0.3,0.8-0.5,1.1-0.7
			c0.7-0.4,1.3-0.9,2-1.3c1-0.5,1.3-1.1,1.2-2.2c-0.1-1.4-1-1.9-2.2-1.2c-1,0.6-2,1.2-2.9,1.9c-1.3,0.9-2.6,1.8-3.9,2.7
			c-0.3,0.2-0.7,0.4-1,0.6c-0.9,0.8-1.8,1.6-2.6,2.4c-0.1,0.1-0.3,0.2-0.5,0.3c-0.4,0.1-0.5,0-0.7-0.4c-0.5-1.8-0.4-3.6-0.4-5.4
			c0-1,0.2-1.2,1.3-1.4c1.1-0.1,2.2-0.1,3.2-0.5c0.3-0.1,0.7-0.3,1-0.3c1.7-0.2,3.2-0.8,4.2-2.2c0.1-0.1,0.2-0.2,0.3-0.3
			c0.9-0.9,1.6-1.8,2.1-3c0.6-1.5,1-3,1.4-4.6c0.4-1.5,0.5-3.1,0.2-4.7c-0.2-1.4-0.5-2.9-0.7-4.3c-0.1-0.6-0.3-1.2-0.6-1.7
			c-0.4-0.8-0.8-1.5-1.3-2.2c-0.3-0.5-0.6-1.1-1-1.6c-0.5-0.5-1.2-0.9-1.7-1.4c-0.3-0.2-0.4-0.5-0.1-0.8c0.3-0.2,0.4-0.5,0.7-0.8
			c0.1-0.1,0.3-0.3,0.4-0.3c1,0.1,1.7-0.4,2.4-0.9c0.2-0.1,0.4-0.5,0.4-0.6c-0.1-0.3-0.4-0.6-0.7-0.6c-1.7-0.1-3.4-0.4-4.9,0.8
			c-0.6,0.5-1.3,0.8-2.2,0.2c-0.6-0.4-1.4-0.5-2.1-0.5c-0.7,0-1.1-0.3-1.5-0.8c0.4-0.3,0.8-0.7,1.2-1c0.2-0.2,0.4-0.3,0.6-0.5
			c0.1-0.2,0.4-0.6,0.3-0.7c-0.2-0.3-0.5-0.6-0.8-0.6c-1.3,0-2.6,0.2-3.4,1.5c-0.5,0.8-1.1,1.5-2,2c-0.5,0.2-1,0.4-1.5,0.5
			c-0.6,0.1-1.2,0.1-1.7,0.1c-0.3,0-0.6,0.1-0.8-0.1c-1-0.8-1.3-2.1-0.8-3.2c0.2-0.4,0.3-0.7,0.4-1.1c0.1-0.4,0-0.6-0.4-0.8
			c-0.7-0.3-1.5,0-1.9,0.8c-0.7,1.4-0.8,2.8-0.7,4.3c0.1,1.2,0,1.5-1,2.2c-0.5,0.3-0.9,0.5-1.4,0.8c-0.5,0.3-1,0.3-1.5,0.2
			c-0.5-0.1-1.1-0.2-1.6-0.2c-0.4,0-0.8,0.1-1.1-0.1c-0.6-0.2-1.1-0.6-1.7-0.8c-0.4-0.2-0.8-0.3-1.2-0.4c-0.4,0-0.8,0-1.1,0.2
			c-0.7,0.5-0.3,1.7,0.4,2.1c1,0.7,2.2,0.6,3.3,0.9c0.4,0.1,0.8,0.4,1.1,0.7c0.1,0.1-0.2,0.6-0.4,0.8c-1.2,1.1-1.7,2.6-2.6,3.9
			c-0.1,0.1-0.1,0.2-0.1,0.3c-0.2,1.1-0.5,2.2-0.6,3.2c-0.1,1-0.3,2-0.1,3c0.2,1.1,0.6,2.1,1,3.1c0.2,0.5,0.5,1.1,0.8,1.5
			c0.8,1.1,1.7,2.1,2.6,3.1c0.7,0.8,1.5,1.5,2.6,1.8c0.5,0.1,1,0.5,1.5,0.7c0.5,0.2,1.1,0.5,1.6,0.7c0.6,0.2,1.3,0.4,1.9,0.7
			c1.5,0.6,2.9,1.2,4.6,1.1c0.2,0,0.7,0.2,0.7,0.5c0.2,0.6,0.3,1.2,0.3,1.8c0,1.1-0.2,2.2,0.3,3.3c0.1,0.2,0.1,0.4,0.1,0.6
			c0,0.4,0,0.7-0.1,1.1c-0.1,0.3-0.3,0.6-0.6,0.7c-0.4,0.1-0.8,0-1.2-0.1c-1.4-0.3-2.7-0.6-4.1-0.9c-0.8-0.2-1.6-0.3-2.4-0.4
			c-1-0.2-2-0.5-3-0.7c-1.2-0.1-2.3-0.4-3.4-0.9c-0.6-0.3-1.6,0.2-1.9,0.9c-0.3,0.6-0.1,1.2,0.5,1.6c0.4,0.3,0.9,0.5,1.5,0.5
			c0.4,0,0.9,0.1,1.3,0.3c1,0.5,1.9,0.8,3,1c2,0.4,4,1,6.1,1.1c0.1,0,0.2,0,0.3,0.1c1,0.3,1.9,0.7,2.9,1c0.7,0.2,1.4,0.9,1.5,1.6
			c0.1,0.7,0.2,1.4,0.3,2.2c0.1,0.9,0.3,1.8,0.5,2.6c0.1,0.3,0.2,0.7,0.2,1c0,0.7,0.2,1.3,0.4,1.9c0.4,1.1,0.7,2.3-0.4,3.2
			c-0.4,0.4-0.7,0.8-1.1,1.3c-0.6,1-1.2,2-1.9,2.9c-0.8,1.2-1.6,2.3-2.4,3.4c-0.9,1.2-1.7,2.4-2.6,3.6c-0.7,0.9-0.6,2.1,0.3,2.8
			c0.1,0.1,0.3,0.2,0.5,0.2c1.1-0.3,2-0.8,2.6-1.7c0.6-0.7,1.1-1.6,1.7-2.2c1.4-1.3,2.3-3,3.3-4.6c0.7-1.1,1.3-2.3,2-3.4
			c0.4-0.6,1.1-0.7,1.6-0.2c0.5,0.5,1.2,0.8,1.4,1.6c0.4,1.2,1.6,1.8,2.5,2.6c0.5,0.5,1.1,1,1.6,1.5c0.5,0.5,1.1,0.8,1.6,1.3
			c0.7,0.7,1.6,1.3,2.5,1.9c0.8,0.4,1.6,0.2,2-0.4C117.5,70,117.6,69.4,117.1,68.7z M101.8,33.4C101.8,33.4,101.8,33.4,101.8,33.4
			c-0.5,0.1-1.1,0-1.6,0c-0.5,0-1,0-1.5,0c-0.1,0-0.1,0-0.2,0c0,0,0,0,0,0c-1.3-0.2-2.6-0.5-3.9-0.7c-1.3-0.3-2.5-0.9-3.6-1.6
			c-0.7-0.4-1.5-0.7-2.1-1.2c-1-0.8-2-1.6-2.6-2.8c-0.2-0.4-0.3-0.9-0.6-1.3c-0.1-0.2-0.3-0.3-0.4-0.5c-0.2-0.3-0.5-0.5-0.5-0.8
			c-0.1-1-0.3-2-0.1-2.9c0.3-1.7,0.7-3.4,1.8-4.8c0.4-0.4,0.6-0.9,1-1.4c0.3-0.3,0.6-0.6,0.9-0.9c0.2-0.2,0.4-0.5,0.6-0.7
			c0.2-0.1,0.4-0.2,0.6-0.4c0.3-0.2,0.7-0.4,1-0.7c0.3-0.3,0.5-0.6,0.9-0.6c0.2,0,0.5-0.2,0.7-0.4c0.9-1.1,2.2-1.4,3.5-1.4
			c1.1,0,2.1-0.1,3.1-0.6c0.1-0.1,0.3-0.2,0.5-0.1c0.7,0,1.1-0.2,1.1-0.9c0.4,0,0.6,0,0.9-0.1c1.2-0.3,2.3,0.1,3.5,0.4
			c1.3,0.4,2.3,1.2,3.3,2c0.4,0.3,0.8,0.6,1.1,0.9c1,0.8,2.1,1.5,2.4,3c0,0.1,0,0.1,0.1,0.2c1,0.8,1,2.1,1.3,3.2
			c0.4,1.4,0.6,2.9,0.5,4.4c-0.1,2-0.4,3.9-1.2,5.8c-0.7,1.6-1.7,2.8-3,3.7c-0.3,0.2-0.7,0.3-1,0.4c-1.4,0.5-2.9,0.7-4.4,1
			C103,33.5,102.4,33.5,101.8,33.4z"/>
		<path class="st0" d="M102,18.7c-1.4,0-2,0.4-2.4,1.4c-0.1,0.1-0.1,0.4,0,0.5c0.4,0.8,0.8,1.6,1.6,2.1c0.7,0.4,1.7,0,1.9-0.7
			c0.1-0.4,0.2-0.7,0.5-1c0.5-0.6,0.5-1-0.1-1.5C103,19.1,102.5,18.7,102,18.7z M94.7,20.2c0,0.6,0,0.6,0.8,1.9
			c0.3,0.5,1.7,0.6,2,0.1c0-0.1,0.1-0.1,0.1-0.2c0-0.5,0-1.1,0-1.6c0-0.4,0-0.7,0-1.1c0-0.3-0.1-0.6-0.3-0.7
			C95.9,18,94.7,19,94.7,20.2z"/>
		<path class="st0" d="M102,18.7c0.4,0,0.9,0.4,1.4,0.8c0.6,0.5,0.6,0.9,0.1,1.5c-0.2,0.3-0.4,0.7-0.5,1c-0.1,0.7-1.2,1.1-1.9,0.7
			c-0.8-0.5-1.3-1.3-1.6-2.1c-0.1-0.1,0-0.3,0-0.5C100.1,19.1,100.7,18.7,102,18.7z"/>
		<path class="st0" d="M94.7,20.2c0-1.3,1.2-2.3,2.6-1.6c0.2,0.1,0.3,0.5,0.3,0.7c0.1,0.3,0,0.7,0,1.1c0,0.5,0,1.1,0,1.6
			c0,0.1,0,0.1-0.1,0.2c-0.4,0.5-1.7,0.4-2-0.1C94.7,20.9,94.7,20.8,94.7,20.2z"/>
	</g>
</g>
</svg>
